#usda 1.0
(
    defaultPrim = "DiceCup"
    metersPerUnit = 1
    upAxis = "Z"
)

def Xform "DiceCup" (
    prepend apiSchemas = ["PhysicsRigidBodyAPI", "PhysicsMassAPI"]
)
{
    float physics:mass = 0.03

    def Mesh "mesh" (
        prepend apiSchemas = ["PhysicsCollisionAPI", "PhysicsMeshCollisionAPI"]
    )
    {
        float3[] extent = [(-0.021, -0.021, 0), (0.021, 0.021, 0.04)]
        int[] faceVertexCounts = [3, 3, 3, 3, 3, 3, 3, 3, 3, 3, 3, 3, 3, 3, 3, 3, 3, 3, 3, 3, 3, 3, 3, 3, 3, 3, 3, 3, 3, 3, 3, 3, 3, 3, 3, 3, 3, 3, 3, 3, 3, 3, 3, 3, 3, 3, 3, 3, 3, 3, 3, 3, 3, 3, 3, 3, 3, 3, 3, 3, 3, 3, 3, 3, 3, 3, 3, 3, 3, 3, 3, 3, 3, 3, 3, 3, 3, 3, 3, 3, 3, 3, 3, 3, 3, 3, 3, 3, 3, 3, 3, 3, 3, 3, 3, 3, 3, 3, 3, 3, 3, 3, 3, 3, 3, 3, 3, 3, 3, 3, 3, 3, 3, 3, 3, 3, 3, 3, 3, 3, 3, 3, 3, 3, 3, 3, 3, 3, 3, 3, 3, 3, 3, 3, 3, 3, 3, 3, 3, 3, 3, 3, 3, 3, 3, 3, 3, 3, 3, 3, 3, 3, 3, 3, 3, 3, 3, 3, 3, 3, 3, 3, 3, 3, 3, 3, 3, 3, 3, 3, 3, 3, 3, 3, 3, 3, 3, 3, 3, 3, 3, 3, 3, 3, 3, 3, 3, 3, 3, 3, 3, 3, 3, 3, 3, 3, 3, 3, 3, 3, 3, 3, 3, 3, 3, 3, 3, 3, 3, 3, 3, 3, 3, 3, 3, 3, 3, 3, 3, 3, 3, 3, 3, 3, 3, 3, 3, 3, 3, 3, 3, 3, 3, 3, 3, 3, 3, 3, 3, 3, 3, 3, 3, 3, 3, 3, 3, 3, 3, 3, 3, 3, 3, 3, 3, 3, 3, 3, 3, 3, 3, 3, 3, 3, 3, 3, 3, 3, 3, 3, 3, 3, 3, 3, 3, 3, 3, 3, 3, 3, 3, 3, 3, 3, 3, 3, 3, 3, 3, 3, 3, 3, 3, 3, 3, 3, 3, 3, 3, 3, 3, 3, 3, 3, 3, 3, 3, 3, 3, 3, 3, 3, 3, 3, 3, 3, 3, 3, 3, 3, 3, 3, 3, 3, 3, 3, 3, 3, 3, 3, 3, 3, 3, 3, 3, 3, 3, 3, 3, 3, 3, 3, 3, 3, 3, 3, 3, 3, 3, 3, 3, 3, 3, 3, 3, 3, 3, 3, 3, 3, 3, 3, 3, 3, 3, 3, 3, 3, 3, 3, 3, 3, 3, 3, 3, 3, 3, 3, 3, 3, 3, 3, 3, 3, 3, 3, 3, 3, 3, 3, 3, 3, 3, 3, 3, 3, 3, 3, 3, 3, 3, 3, 3, 3, 3, 3, 3, 3, 3, 3, 3, 3, 3, 3, 3, 3, 3, 3, 3, 3, 3, 3, 3, 3, 3, 3, 3, 3, 3, 3, 3, 3, 3, 3, 3, 3, 3, 3, 3, 3, 3, 3, 3, 3, 3, 3, 3, 3]
        int[] faceVertexIndices = [0, 4, 1, 1, 4, 5, 1, 5, 2, 2, 5, 6, 2, 6, 3, 3, 6, 7, 3, 7, 0, 0, 7, 4, 4, 8, 5, 5, 8, 9, 5, 9, 6, 6, 9, 10, 6, 10, 7, 7, 10, 11, 7, 11, 4, 4, 11, 8, 8, 12, 9, 9, 12, 13, 9, 13, 10, 10, 13, 14, 10, 14, 11, 11, 14, 15, 11, 15, 8, 8, 15, 12, 12, 16, 13, 13, 16, 17, 13, 17, 14, 14, 17, 18, 14, 18, 15, 15, 18, 19, 15, 19, 12, 12, 19, 16, 16, 20, 17, 17, 20, 21, 17, 21, 18, 18, 21, 22, 18, 22, 19, 19, 22, 23, 19, 23, 16, 16, 23, 20, 20, 24, 21, 21, 24, 25, 21, 25, 22, 22, 25, 26, 22, 26, 23, 23, 26, 27, 23, 27, 20, 20, 27, 24, 24, 28, 25, 25, 28, 29, 25, 29, 26, 26, 29, 30, 26, 30, 27, 27, 30, 31, 27, 31, 24, 24, 31, 28, 28, 32, 29, 29, 32, 33, 29, 33, 30, 30, 33, 34, 30, 34, 31, 31, 34, 35, 31, 35, 28, 28, 35, 32, 32, 36, 33, 33, 36, 37, 33, 37, 34, 34, 37, 38, 34, 38, 35, 35, 38, 39, 35, 39, 32, 32, 39, 36, 36, 40, 37, 37, 40, 41, 37, 41, 38, 38, 41, 42, 38, 42, 39, 39, 42, 43, 39, 43, 36, 36, 43, 40, 40, 44, 41, 41, 44, 45, 41, 45, 42, 42, 45, 46, 42, 46, 43, 43, 46, 47, 43, 47, 40, 40, 47, 44, 44, 48, 45, 45, 48, 49, 45, 49, 46, 46, 49, 50, 46, 50, 47, 47, 50, 51, 47, 51, 44, 44, 51, 48, 48, 52, 49, 49, 52, 53, 49, 53, 50, 50, 53, 54, 50, 54, 51, 51, 54, 55, 51, 55, 48, 48, 55, 52, 52, 56, 53, 53, 56, 57, 53, 57, 54, 54, 57, 58, 54, 58, 55, 55, 58, 59, 55, 59, 52, 52, 59, 56, 56, 60, 57, 57, 60, 61, 57, 61, 58, 58, 61, 62, 58, 62, 59, 59, 62, 63, 59, 63, 56, 56, 63, 60, 60, 64, 61, 61, 64, 65, 61, 65, 62, 62, 65, 66, 62, 66, 63, 63, 66, 67, 63, 67, 60, 60, 67, 64, 64, 68, 65, 65, 68, 69, 65, 69, 66, 66, 69, 70, 66, 70, 67, 67, 70, 71, 67, 71, 64, 64, 71, 68, 68, 72, 69, 69, 72, 73, 69, 73, 70, 70, 73, 74, 70, 74, 71, 71, 74, 75, 71, 75, 68, 68, 75, 72, 72, 76, 73, 73, 76, 77, 73, 77, 74, 74, 77, 78, 74, 78, 75, 75, 78, 79, 75, 79, 72, 72, 79, 76, 76, 80, 77, 77, 80, 81, 77, 81, 78, 78, 81, 82, 78, 82, 79, 79, 82, 83, 79, 83, 76, 76, 83, 80, 80, 84, 81, 81, 84, 85, 81, 85, 82, 82, 85, 86, 82, 86, 83, 83, 86, 87, 83, 87, 80, 80, 87, 84, 84, 88, 85, 85, 88, 89, 85, 89, 86, 86, 89, 90, 86, 90, 87, 87, 90, 91, 87, 91, 84, 84, 91, 88, 88, 92, 89, 89, 92, 93, 89, 93, 90, 90, 93, 94, 90, 94, 91, 91, 94, 95, 91, 95, 88, 88, 95, 92, 92, 96, 93, 93, 96, 97, 93, 97, 94, 94, 97, 98, 94, 98, 95, 95, 98, 99, 95, 99, 92, 92, 99, 96, 96, 100, 97, 97, 100, 101, 97, 101, 98, 98, 101, 102, 98, 102, 99, 99, 102, 103, 99, 103, 96, 96, 103, 100, 100, 104, 101, 101, 104, 105, 101, 105, 102, 102, 105, 106, 102, 106, 103, 103, 106, 107, 103, 107, 100, 100, 107, 104, 104, 108, 105, 105, 108, 109, 105, 109, 106, 106, 109, 110, 106, 110, 107, 107, 110, 111, 107, 111, 104, 104, 111, 108, 108, 112, 109, 109, 112, 113, 109, 113, 110, 110, 113, 114, 110, 114, 111, 111, 114, 115, 111, 115, 108, 108, 115, 112, 112, 116, 113, 113, 116, 117, 113, 117, 114, 114, 117, 118, 114, 118, 115, 115, 118, 119, 115, 119, 112, 112, 119, 116, 116, 120, 117, 117, 120, 121, 117, 121, 118, 118, 121, 122, 118, 122, 119, 119, 122, 123, 119, 123, 116, 116, 123, 120, 120, 124, 121, 121, 124, 125, 121, 125, 122, 122, 125, 126, 122, 126, 123, 123, 126, 127, 123, 127, 120, 120, 127, 124, 124, 0, 125, 125, 0, 1, 125, 1, 126, 126, 1, 2, 126, 2, 127, 127, 2, 3, 127, 3, 124, 124, 3, 0, 129, 128, 132, 129, 132, 130, 130, 132, 133, 130, 133, 131, 132, 128, 134, 132, 134, 133, 133, 134, 135, 133, 135, 131, 134, 128, 136, 134, 136, 135, 135, 136, 137, 135, 137, 131, 136, 128, 138, 136, 138, 137, 137, 138, 139, 137, 139, 131, 138, 128, 140, 138, 140, 139, 139, 140, 141, 139, 141, 131, 140, 128, 142, 140, 142, 141, 141, 142, 143, 141, 143, 131, 142, 128, 144, 142, 144, 143, 143, 144, 145, 143, 145, 131, 144, 128, 146, 144, 146, 145, 145, 146, 147, 145, 147, 131, 146, 128, 148, 146, 148, 147, 147, 148, 149, 147, 149, 131, 148, 128, 150, 148, 150, 149, 149, 150, 151, 149, 151, 131, 150, 128, 152, 150, 152, 151, 151, 152, 153, 151, 153, 131, 152, 128, 154, 152, 154, 153, 153, 154, 155, 153, 155, 131, 154, 128, 156, 154, 156, 155, 155, 156, 157, 155, 157, 131, 156, 128, 158, 156, 158, 157, 157, 158, 159, 157, 159, 131, 158, 128, 160, 158, 160, 159, 159, 160, 161, 159, 161, 131, 160, 128, 162, 160, 162, 161, 161, 162, 163, 161, 163, 131, 162, 128, 164, 162, 164, 163, 163, 164, 165, 163, 165, 131, 164, 128, 166, 164, 166, 165, 165, 166, 167, 165, 167, 131, 166, 128, 168, 166, 168, 167, 167, 168, 169, 167, 169, 131, 168, 128, 170, 168, 170, 169, 169, 170, 171, 169, 171, 131, 170, 128, 172, 170, 172, 171, 171, 172, 173, 171, 173, 131, 172, 128, 174, 172, 174, 173, 173, 174, 175, 173, 175, 131, 174, 128, 176, 174, 176, 175, 175, 176, 177, 175, 177, 131, 176, 128, 178, 176, 178, 177, 177, 178, 179, 177, 179, 131, 178, 128, 180, 178, 180, 179, 179, 180, 181, 179, 181, 131, 180, 128, 182, 180, 182, 181, 181, 182, 183, 181, 183, 131, 182, 128, 184, 182, 184, 183, 183, 184, 185, 183, 185, 131, 184, 128, 186, 184, 186, 185, 185, 186, 187, 185, 187, 131, 186, 128, 188, 186, 188, 187, 187, 188, 189, 187, 189, 131, 188, 128, 190, 188, 190, 189, 189, 190, 191, 189, 191, 131, 190, 128, 192, 190, 192, 191, 191, 192, 193, 191, 193, 131, 192, 128, 194, 192, 194, 193, 193, 194, 195, 193, 195, 131, 194, 128, 196, 194, 196, 195, 195, 196, 197, 195, 197, 131, 196, 128, 198, 196, 198, 197, 197, 198, 199, 197, 199, 131, 198, 128, 200, 198, 200, 199, 199, 200, 201, 199, 201, 131, 200, 128, 202, 200, 202, 201, 201, 202, 203, 201, 203, 131, 202, 128, 204, 202, 204, 203, 203, 204, 205, 203, 205, 131, 204, 128, 206, 204, 206, 205, 205, 206, 207, 205, 207, 131, 206, 128, 208, 206, 208, 207, 207, 208, 209, 207, 209, 131, 208, 128, 210, 208, 210, 209, 209, 210, 211, 209, 211, 131, 210, 128, 212, 210, 212, 211, 211, 212, 213, 211, 213, 131, 212, 128, 214, 212, 214, 213, 213, 214, 215, 213, 215, 131, 214, 128, 216, 214, 216, 215, 215, 216, 217, 215, 217, 131, 216, 128, 218, 216, 218, 217, 217, 218, 219, 217, 219, 131, 218, 128, 220, 218, 220, 219, 219, 220, 221, 219, 221, 131, 220, 128, 222, 220, 222, 221, 221, 222, 223, 221, 223, 131, 222, 128, 224, 222, 224, 223, 223, 224, 225, 223, 225, 131, 224, 128, 129, 224, 129, 225, 225, 129, 130, 225, 130, 131]
        uniform token physics:approximation = "convexDecomposition"
        point3f[] points = [(0.016, 0, 0), (0.021, 0, 0), (0.021, 0, 0.04), (0.016, 0, 0.04), (0.015692564, 0.0031214452, 0), (0.020596491, 0.004096897, 0), (0.020596491, 0.004096897, 0.04), (0.015692564, 0.0031214452, 0.04), (0.014782073, 0.006122935, 0), (0.01940147, 0.008036352, 0), (0.01940147, 0.008036352, 0.04), (0.014782073, 0.006122935, 0.04), (0.013303514, 0.008889124, 0), (0.017460862, 0.011666975, 0), (0.017460862, 0.011666975, 0.04), (0.013303514, 0.008889124, 0.04), (0.0113137085, 0.0113137085, 0), (0.014849243, 0.014849243, 0), (0.014849243, 0.014849243, 0.04), (0.0113137085, 0.0113137085, 0.04), (0.008889124, 0.013303514, 0), (0.011666975, 0.017460862, 0), (0.011666975, 0.017460862, 0.04), (0.008889124, 0.013303514, 0.04), (0.006122935, 0.014782073, 0), (0.008036352, 0.01940147, 0), (0.008036352, 0.01940147, 0.04), (0.006122935, 0.014782073, 0.04), (0.0031214452, 0.015692564, 0), (0.004096897, 0.020596491, 0), (0.004096897, 0.020596491, 0.04), (0.0031214452, 0.015692564, 0.04), (9.797175e-19, 0.016, 0), (1.2858791e-18, 0.021, 0), (1.2858791e-18, 0.021, 0.04), (9.797175e-19, 0.016, 0.04), (-0.0031214452, 0.015692564, 0), (-0.004096897, 0.020596491, 0), (-0.004096897, 0.020596491, 0.04), (-0.0031214452, 0.015692564, 0.04), (-0.006122935, 0.014782073, 0), (-0.008036352, 0.01940147, 0), (-0.008036352, 0.01940147, 0.04), (-0.006122935, 0.014782073, 0.04), (-0.008889124, 0.013303514, 0), (-0.011666975, 0.017460862, 0), (-0.011666975, 0.017460862, 0.04), (-0.008889124, 0.013303514, 0.04), (-0.0113137085, 0.0113137085, 0), (-0.014849243, 0.014849243, 0), (-0.014849243, 0.014849243, 0.04), (-0.0113137085, 0.0113137085, 0.04), (-0.013303514, 0.008889124, 0), (-0.017460862, 0.011666975, 0), (-0.017460862, 0.011666975, 0.04), (-0.013303514, 0.008889124, 0.04), (-0.014782073, 0.006122935, 0), (-0.01940147, 0.008036352, 0), (-0.01940147, 0.008036352, 0.04), (-0.014782073, 0.006122935, 0.04), (-0.015692564, 0.0031214452, 0), (-0.020596491, 0.004096897, 0), (-0.020596491, 0.004096897, 0.04), (-0.015692564, 0.0031214452, 0.04), (-0.016, 1.959435e-18, 0), (-0.021, 2.5717583e-18, 0), (-0.021, 2.5717583e-18, 0.04), (-0.016, 1.959435e-18, 0.04), (-0.015692564, -0.0031214452, 0), (-0.020596491, -0.004096897, 0), (-0.020596491, -0.004096897, 0.04), (-0.015692564, -0.0031214452, 0.04), (-0.014782073, -0.006122935, 0), (-0.01940147, -0.008036352, 0), (-0.01940147, -0.008036352, 0.04), (-0.014782073, -0.006122935, 0.04), (-0.013303514, -0.008889124, 0), (-0.017460862, -0.011666975, 0), (-0.017460862, -0.011666975, 0.04), (-0.013303514, -0.008889124, 0.04), (-0.0113137085, -0.0113137085, 0), (-0.014849243, -0.014849243, 0), (-0.014849243, -0.014849243, 0.04), (-0.0113137085, -0.0113137085, 0.04), (-0.008889124, -0.013303514, 0), (-0.011666975, -0.017460862, 0), (-0.011666975, -0.017460862, 0.04), (-0.008889124, -0.013303514, 0.04), (-0.006122935, -0.014782073, 0), (-0.008036352, -0.01940147, 0), (-0.008036352, -0.01940147, 0.04), (-0.006122935, -0.014782073, 0.04), (-0.0031214452, -0.015692564, 0), (-0.004096897, -0.020596491, 0), (-0.004096897, -0.020596491, 0.04), (-0.0031214452, -0.015692564, 0.04), (-2.9391522e-18, -0.016, 0), (-3.8576374e-18, -0.021, 0), (-3.8576374e-18, -0.021, 0.04), (-2.9391522e-18, -0.016, 0.04), (0.0031214452, -0.015692564, 0), (0.004096897, -0.020596491, 0), (0.004096897, -0.020596491, 0.04), (0.0031214452, -0.015692564, 0.04), (0.006122935, -0.014782073, 0), (0.008036352, -0.01940147, 0), (0.008036352, -0.01940147, 0.04), (0.006122935, -0.014782073, 0.04), (0.008889124, -0.013303514, 0), (0.011666975, -0.017460862, 0), (0.011666975, -0.017460862, 0.04), (0.008889124, -0.013303514, 0.04), (0.0113137085, -0.0113137085, 0), (0.014849243, -0.014849243, 0), (0.014849243, -0.014849243, 0.04), (0.0113137085, -0.0113137085, 0.04), (0.013303514, -0.008889124, 0), (0.017460862, -0.011666975, 0), (0.017460862, -0.011666975, 0.04), (0.013303514, -0.008889124, 0.04), (0.014782073, -0.006122935, 0), (0.01940147, -0.008036352, 0), (0.01940147, -0.008036352, 0.04), (0.014782073, -0.006122935, 0.04), (0.015692564, -0.0031214452, 0), (0.020596491, -0.004096897, 0), (0.020596491, -0.004096897, 0.04), (0.015692564, -0.0031214452, 0.04), (0, 0, 0), (0.021, 0, 0), (0.021, 0, 0.005), (0, 0, 0.005), (0.020820342, 0.00274105, 0), (0.020820342, 0.00274105, 0.005), (0.020284442, 0.0054352, 0), (0.020284442, 0.0054352, 0.005), (0.01940147, 0.008036352, 0), (0.01940147, 0.008036352, 0.005), (0.018186534, 0.0105, 0), (0.018186534, 0.0105, 0.005), (0.01666042, 0.01278399, 0), (0.01666042, 0.01278399, 0.005), (0.014849243, 0.014849243, 0), (0.014849243, 0.014849243, 0.005), (0.01278399, 0.01666042, 0), (0.01278399, 0.01666042, 0.005), (0.0105, 0.018186534, 0), (0.0105, 0.018186534, 0.005), (0.008036352, 0.01940147, 0), (0.008036352, 0.01940147, 0.005), (0.0054352, 0.020284442, 0), (0.0054352, 0.020284442, 0.005), (0.00274105, 0.020820342, 0), (0.00274105, 0.020820342, 0.005), (1.2858791e-18, 0.021, 0), (1.2858791e-18, 0.021, 0.005), (-0.00274105, 0.020820342, 0), (-0.00274105, 0.020820342, 0.005), (-0.0054352, 0.020284442, 0), (-0.0054352, 0.020284442, 0.005), (-0.008036352, 0.01940147, 0), (-0.008036352, 0.01940147, 0.005), (-0.0105, 0.018186534, 0), (-0.0105, 0.018186534, 0.005), (-0.01278399, 0.01666042, 0), (-0.01278399, 0.01666042, 0.005), (-0.014849243, 0.014849243, 0), (-0.014849243, 0.014849243, 0.005), (-0.01666042, 0.01278399, 0), (-0.01666042, 0.01278399, 0.005), (-0.018186534, 0.0105, 0), (-0.018186534, 0.0105, 0.005), (-0.01940147, 0.008036352, 0), (-0.01940147, 0.008036352, 0.005), (-0.020284442, 0.0054352, 0), (-0.020284442, 0.0054352, 0.005), (-0.020820342, 0.00274105, 0), (-0.020820342, 0.00274105, 0.005), (-0.021, 2.5717583e-18, 0), (-0.021, 2.5717583e-18, 0.005), (-0.020820342, -0.00274105, 0), (-0.020820342, -0.00274105, 0.005), (-0.020284442, -0.0054352, 0), (-0.020284442, -0.0054352, 0.005), (-0.01940147, -0.008036352, 0), (-0.01940147, -0.008036352, 0.005), (-0.018186534, -0.0105, 0), (-0.018186534, -0.0105, 0.005), (-0.01666042, -0.01278399, 0), (-0.01666042, -0.01278399, 0.005), (-0.014849243, -0.014849243, 0), (-0.014849243, -0.014849243, 0.005), (-0.01278399, -0.01666042, 0), (-0.01278399, -0.01666042, 0.005), (-0.0105, -0.018186534, 0), (-0.0105, -0.018186534, 0.005), (-0.008036352, -0.01940147, 0), (-0.008036352, -0.01940147, 0.005), (-0.0054352, -0.020284442, 0), (-0.0054352, -0.020284442, 0.005), (-0.00274105, -0.020820342, 0), (-0.00274105, -0.020820342, 0.005), (-3.8576374e-18, -0.021, 0), (-3.8576374e-18, -0.021, 0.005), (0.00274105, -0.020820342, 0), (0.00274105, -0.020820342, 0.005), (0.0054352, -0.020284442, 0), (0.0054352, -0.020284442, 0.005), (0.008036352, -0.01940147, 0), (0.008036352, -0.01940147, 0.005), (0.0105, -0.018186534, 0), (0.0105, -0.018186534, 0.005), (0.01278399, -0.01666042, 0), (0.01278399, -0.01666042, 0.005), (0.014849243, -0.014849243, 0), (0.014849243, -0.014849243, 0.005), (0.01666042, -0.01278399, 0), (0.01666042, -0.01278399, 0.005), (0.018186534, -0.0105, 0), (0.018186534, -0.0105, 0.005), (0.01940147, -0.008036352, 0), (0.01940147, -0.008036352, 0.005), (0.020284442, -0.0054352, 0), (0.020284442, -0.0054352, 0.005), (0.020820342, -0.00274105, 0), (0.020820342, -0.00274105, 0.005)]
        color3f[] primvars:displayColor = [(0.15, 0.35, 0.75)]
    }
}

